<svg width="24" height="21" viewBox="0 0 24 21" fill="none" xmlns="http://www.w3.org/2000/svg">
<path d="M20.5413 2.86183C20.0305 2.35083 19.4241 1.94547 18.7566 1.66891C18.0892 1.39235 17.3738 1.25 16.6513 1.25C15.9288 1.25 15.2134 1.39235 14.5459 1.66891C13.8785 1.94547 13.272 2.35083 12.7613 2.86183L11.7013 3.92183L10.6413 2.86183C9.6096 1.83013 8.21032 1.25053 6.75129 1.25053C5.29226 1.25053 3.89298 1.83013 2.86129 2.86183C1.8296 3.89352 1.25 5.29279 1.25 6.75183C1.25 8.21086 1.8296 9.61013 2.86129 10.6418L11.7013 19.4818L20.5413 10.6418C21.0523 10.1311 21.4576 9.52464 21.7342 8.85718C22.0108 8.18972 22.1531 7.47431 22.1531 6.75183C22.1531 6.02934 22.0108 5.31393 21.7342 4.64647C21.4576 3.97901 21.0523 3.37258 20.5413 2.86183Z" fill="#FFC8C8" stroke="#1E1E1E" stroke-width="2.5" stroke-linecap="round" stroke-linejoin="round"/>
</svg>
